PathFileType	4	(X/Y/Z)	C:\Users\Biomechanik\SynologyDrive\AlexP\Athlete_03\Athlete_3_25_03_31\Deadlift_bw_01\marker_experimental.trc
DataRate	CameraRate	NumFrames	NumMarkers	Units	OrigDataRate	OrigDataStartFrame	OrigNumFrames
200.000000	200.000000	4	55	mm	200.000000	954	1527
Frame#	Time	BL			BR			GLAB			RFHD			LFHD			C7			T6			SPINMOL			SPINM2			SPINM3			T12			BELTOL			BELT2			BELT3			SACROL			SACR2			SACR3			LTHOL			LTH2			LTH3			LSHAOL			LSHA2			LSHA3			LHEE			LTOE			LM5			RTHOL			RTH2			RTH3			RSHAOL			RSHA2			RSHA3			RHEE			RTOE			RM5			STRN			XIPH			LACR			LUAOL			LUA2			LUA3			LLAOL			LLA2			LLA3			LWRR			LWRU			RACR			RUAOL			RUA2			RUA3			RLAOL			RLA2			RLA3			RWRR			RWRU			
		X1	Y1	Z1	X2	Y2	Z2	X3	Y3	Z3	X4	Y4	Z4	X5	Y5	Z5	X6	Y6	Z6	X7	Y7	Z7	X8	Y8	Z8	X9	Y9	Z9	X10	Y10	Z10	X11	Y11	Z11	X12	Y12	Z12	X13	Y13	Z13	X14	Y14	Z14	X15	Y15	Z15	X16	Y16	Z16	X17	Y17	Z17	X18	Y18	Z18	X19	Y19	Z19	X20	Y20	Z20	X21	Y21	Z21	X22	Y22	Z22	X23	Y23	Z23	X24	Y24	Z24	X25	Y25	Z25	X26	Y26	Z26	X27	Y27	Z27	X28	Y28	Z28	X29	Y29	Z29	X30	Y30	Z30	X31	Y31	Z31	X32	Y32	Z32	X33	Y33	Z33	X34	Y34	Z34	X35	Y35	Z35	X36	Y36	Z36	X37	Y37	Z37	X38	Y38	Z38	X39	Y39	Z39	X40	Y40	Z40	X41	Y41	Z41	X42	Y42	Z42	X43	Y43	Z43	X44	Y44	Z44	X45	Y45	Z45	X46	Y46	Z46	X47	Y47	Z47	X48	Y48	Z48	X49	Y49	Z49	X50	Y50	Z50	X51	Y51	Z51	X52	Y52	Z52	X53	Y53	Z53	X54	Y54	Z54	X55	Y55	Z55	

955	4.77	1214.248657226562	39.2602920532228	-2269.244140625	1226.854248046875	29.84395027160646	-248.7971954345703	444.3252868652344	1513.994506835938	-1222.240112304688	403.1743774414062	1549.810424804688	-1159.777221679688	402.0892639160156	1542.65625	-1293.261474609375	189.4497222900391	1404.841674804688	-1218.317626953125	92.63724517822266	1259.324340820312	-1221.062377929688	78.26272583007812	1228.151245117188	-1242.4814453125	70.58333587646484	1222.013793945312	-1193.32568359375	57.48603057861328	1167.12548828125	-1227.25048828125	45.41579055786133	1110.673217773438	-1222.831176757812	14.73701190948486	1095.615966796875	-1237.108764648438	15.55187034606934	1093.033813476562	-1186.548706054688	-15.08219337463379	1040.672241210938	-1215.080444335938	-48.08683013916016	949.0836181640626	-1236.679443359375	-45.26473236083984	946.4932250976564	-1185.191772460938	-63.12551879882812	888.8534545898439	-1212.7578125	108.4730529785156	646.3122558593751	-1413.4716796875	83.06122589111328	576.4182739257814	-1386.309692382812	129.1923980712891	589.5925903320314	-1401.29296875	164.3218383789062	318.7933044433595	-1420.287109375	112.1837844848633	259.438934326172	-1408.859008789062	161.9141998291016	257.3699340820314	-1413.160522460938	75.39248657226562	67.85538482666024	-1321.298583984375	293.297607421875	48.64911270141609	-1331.048828125	243.0750427246094	29.92216682434091	-1430.735473632812	97.34309387207031	651.1593627929689	-1015.106506347656	170.2668151855469	621.5567016601564	-1000.740966796875	130.6087188720703	599.1388549804689	-1020.557983398438	155.5267181396484	336.1367492675782	-1002.908020019531	183.2909545898438	262.5769958496094	-1006.118774414062	136.9905242919922	277.6914062500001	-1015.318115234375	75.29125213623047	61.45433807373054	-1112.380859375	288.9057006835938	48.49446487426765	-1103.354248046875	237.0351715087891	39.39299774169928	-1003.533020019531	331.7407531738281	1268.869140625	-1221.408569335938	322.4736022949219	1125.434448242188	-1216.885498046875	265.9701538085938	1328.3681640625	-1394.873046875	281.6606750488281	1171.271362304688	-1490.09619140625	279.4171447753906	1111.035278320312	-1513.945678710938	308.3668212890625	1114.439086914062	-1471.736694335938	303.8704833984375	902.9427490234376	-1515.927124023438	257.5592346191406	842.6943359375001	-1538.239501953125	302.9686584472656	841.0027465820314	-1516.401245117188	304.8009033203125	732.3555297851564	-1512.305541992188	298.6017456054688	738.9372558593751	-1434.325073242188	283.5753479003906	1329.620727539062	-1053.978515625	290.7311096191406	1179.243530273438	-957.8274536132811	313.3819580078125	1117.74365234375	-968.0570068359374	279.5892028808594	1120.636108398438	-929.4306640624999	299.0342712402344	896.8302612304689	-929.0206909179688	351.1520080566406	837.9864501953126	-940.7406005859375	302.9772033691406	833.9783325195314	-929.858154296875	329.1784057617188	744.8121337890626	-940.7715454101562	320.5142211914062	738.0114746093751	-1018.434143066406	
956	4.775	1214.248657226562	39.25997924804702	-2269.24365234375	1226.854614257812	29.84489631652833	-248.7973327636719	446.0000610351562	1511.259887695312	-1222.34814453125	405.0174255371094	1547.26416015625	-1159.890380859375	403.8932189941406	1540.098754882812	-1293.373413085938	190.6380004882812	1403.249267578125	-1218.397583007812	93.12467193603516	1258.235595703125	-1221.096557617188	78.58632659912109	1227.1357421875	-1242.50390625	70.90851593017578	1221.055786132812	-1193.3369140625	57.52278900146484	1166.216186523438	-1227.242553710938	45.15269470214844	1109.843383789062	-1222.808471679688	14.43772315979004	1094.847534179688	-1237.078125	15.25115871429443	1092.2705078125	-1186.50927734375	-15.59262466430664	1040.02587890625	-1215.02001953125	-49.04758453369141	948.3472290039064	-1236.587646484375	-46.19164276123047	945.7493286132814	-1185.095947265625	-64.14073181152344	888.1306762695314	-1212.656982421875	108.3547668457031	645.4796142578126	-1413.6533203125	83.3450927734375	575.4577026367189	-1386.506469726562	129.3919219970703	588.8854980468751	-1401.50830078125	164.9778900146484	318.6257324218751	-1420.526977539062	112.7095336914062	259.3878173828126	-1409.085693359375	162.4379425048828	257.2119140625001	-1413.347778320312	75.39659881591797	67.86038208007821	-1321.304565429688	293.2996520996094	48.64561462402352	-1331.040771484375	243.0757904052734	29.92727279663095	-1430.73095703125	97.23220825195312	650.2142333984376	-1014.892333984375	170.3170166015625	621.0038452148439	-1000.5166015625	130.7926635742188	598.3761596679689	-1020.324829101562	156.2767486572266	335.9521789550782	-1002.66162109375	183.8955841064453	262.3420715332032	-1006.003723144531	137.6048583984375	277.5534362792969	-1015.097778320312	75.31291961669922	61.45406341552741	-1112.3798828125	288.9121398925781	48.48572921752937	-1103.366821289062	237.0420074462891	39.39595413208014	-1003.542785644531	332.3206787109375	1266.640747070312	-1221.463500976562	322.3598022460938	1123.258666992188	-1216.8759765625	266.8957214355469	1326.312866210938	-1394.839111328125	282.2032775878906	1169.266235351562	-1489.988525390625	279.8732604980469	1109.02392578125	-1513.843139648438	308.7754211425781	1112.384521484375	-1471.609252929688	304.0031433105469	900.9432983398439	-1515.847534179688	257.6064453125	840.7606811523439	-1538.166870117188	303.0228881835938	839.0137329101564	-1516.354370117188	304.7371215820312	730.3572998046876	-1512.31689453125	298.6126403808594	736.9138793945314	-1434.332641601562	284.4569396972656	1327.614868164062	-1054.094604492188	291.3407897949219	1177.310546875	-957.9910278320311	313.89404296875	1115.79638671875	-968.2295532226561	280.2026977539062	1118.811279296875	-929.4927978515624	299.3235168457031	894.9608764648439	-929.054931640625	351.3923034667969	836.0606689453126	-940.6834716796875	303.2178649902344	832.1103515625001	-929.8178100585938	329.338623046875	742.9121093750001	-940.6218872070312	320.770751953125	736.0307617187501	-1018.289001464844	
957	4.78	1214.248657226562	39.25960922241225	-2269.242919921875	1226.855102539062	29.84572219848634	-248.7969818115234	447.6604919433594	1508.511962890625	-1222.4541015625	406.8453063964844	1544.70068359375	-1160.000244140625	405.6815795898438	1537.525024414062	-1293.482421875	191.8246765136719	1401.635620117188	-1218.472045898438	93.61549377441406	1257.12744140625	-1221.127075195312	78.91424560546875	1226.102172851562	-1242.522827148438	71.23857879638672	1220.0791015625	-1193.345703125	57.56494140625	1165.288818359375	-1227.2353515625	44.89765167236328	1108.996459960938	-1222.783813476562	14.14497852325439	1094.062866210938	-1237.043701171875	14.95713806152344	1091.491577148438	-1186.467041015625	-16.09444618225098	1039.363647460938	-1214.955688476562	-50.00191116333008	947.5953369140626	-1236.495361328125	-47.11289215087891	944.9891967773439	-1184.999877929688	-65.15103912353516	887.3932495117189	-1212.556884765625	108.2379913330078	644.6356201171876	-1413.822143554688	83.63350677490234	574.4907836914064	-1386.6865234375	129.5925140380859	588.1717529296876	-1401.713989257812	165.6378936767578	318.4552307128907	-1420.765258789062	113.2392425537109	259.3340759277345	-1409.313110351562	162.9656524658203	257.0515441894532	-1413.531860351562	75.40101623535156	67.86548614501962	-1321.309692382812	293.3018188476562	48.6412773132325	-1331.03271484375	243.0762023925781	29.93287849426278	-1430.725952148438	97.119384765625	649.2668457031251	-1014.687927246094	170.3611450195312	620.4464721679689	-1000.298278808594	130.9721374511719	597.6115722656251	-1020.100158691406	157.0136566162109	335.7701721191407	-1002.424865722656	184.4872436523438	262.1101684570313	-1005.88916015625	138.2079010009766	277.4175415039063	-1014.886535644531	75.33317565917969	61.45357894897468	-1112.379028320312	288.9182739257812	48.47741317749031	-1103.378662109375	237.0498046875	39.39743041992194	-1003.551513671875	332.8968200683594	1264.403442382812	-1221.513793945312	322.2486572265625	1121.075927734375	-1216.86865234375	267.8152160644531	1324.2412109375	-1394.805419921875	282.7417602539062	1167.24658203125	-1489.878662109375	280.3257446289062	1106.997680664062	-1513.73828125	309.1788635253906	1110.31689453125	-1471.478271484375	304.12841796875	898.9300537109376	-1515.767944335938	257.6453857421875	838.8129882812501	-1538.093627929688	303.0701904296875	837.0098876953126	-1516.306396484375	304.6658630371094	728.3457641601564	-1512.328247070312	298.6191101074219	734.8775024414064	-1434.340698242188	285.3379516601562	1325.59130859375	-1054.20849609375	291.950439453125	1175.359008789062	-958.1516113281249	314.4049682617188	1113.8271484375	-968.3997802734374	280.8192443847656	1116.975708007812	-929.5464477539061	299.6072692871094	893.0740356445314	-929.0884399414062	351.6328735351562	834.1196899414064	-940.6319580078125	303.4530334472656	830.2254638671876	-929.7772216796875	329.4916687011719	740.9946899414064	-940.4761352539062	321.0174560546875	734.0348510742189	-1018.147766113281	
958	4.785	1214.24853515625	39.25921630859389	-2269.241943359375	1226.85546875	29.8463764190674	-248.7960662841797	449.3068542480469	1505.751831054688	-1222.557861328125	408.6578979492188	1542.121215820312	-1160.107177734375	407.4544982910156	1534.936401367188	-1293.588134765625	193.0099945068359	1400.00146484375	-1218.541259765625	94.10975646972656	1256.000610351562	-1221.154296875	79.24669647216797	1225.051025390625	-1242.538452148438	71.57321929931641	1219.0849609375	-1193.352172851562	57.61192321777344	1164.3447265625	-1227.229125976562	44.65090560913086	1108.131958007812	-1222.757202148438	13.85908985137939	1093.262329101562	-1237.005737304688	14.66936874389648	1090.697265625	-1186.422607421875	-16.5888671875	1038.686279296875	-1214.888671875	-50.94924926757812	946.8289184570314	-1236.4033203125	-48.02876281738281	944.2138061523439	-1184.90478515625	-66.15743255615234	886.6424560546876	-1212.458618164062	108.1214599609375	643.7800903320314	-1413.97705078125	83.92615509033203	573.5178222656251	-1386.845092773438	129.7932891845703	587.4508056640626	-1401.908325195312	166.3009796142578	318.2817993164064	-1421.001220703125	113.7722473144531	259.2776794433595	-1409.540283203125	163.4967346191406	256.8887634277345	-1413.71240234375	75.40579223632812	67.87067413330087	-1321.313598632812	293.3042907714844	48.63597106933602	-1331.024536132812	243.0763244628906	29.93908691406259	-1430.720825195312	97.00373840332031	648.3181152343751	-1014.493408203125	170.3976593017578	619.8854370117189	-1000.083740234375	131.1463775634766	596.8463134765626	-1019.88427734375	157.7353973388672	335.5921630859376	-1002.198669433594	185.0637054443359	261.8826293945313	-1005.773315429688	138.7978515625	277.2850952148438	-1014.68505859375	75.3524169921875	61.45268249511726	-1112.3779296875	288.9240112304688	48.46958541870124	-1103.389892578125	237.0583038330078	39.39762115478522	-1003.559387207031	333.469482421875	1262.157470703125	-1221.5595703125	322.1411743164062	1118.882934570312	-1216.863525390625	268.7287902832031	1322.154663085938	-1394.773193359375	283.2765197753906	1165.213256835938	-1489.767456054688	280.7755737304688	1104.95703125	-1513.631103515625	309.5785827636719	1108.236694335938	-1471.34375	304.2472839355469	896.9033813476564	-1515.688720703125	257.67724609375	836.8518066406251	-1538.02001953125	303.1114501953125	834.9917602539064	-1516.257690429688	304.5877075195312	726.3212890625001	-1512.33935546875	298.6212463378906	732.8286132812501	-1434.349243164062	286.2188415527344	1323.55029296875	-1054.320434570312	292.5597839355469	1173.390502929688	-958.3090820312499	314.9149475097656	1111.836303710938	-968.5676879882811	281.4384460449219	1115.128662109375	-929.5926513671874	299.8849182128906	891.1699829101564	-929.1207885742188	351.8744201660156	832.1645507812501	-940.5862426757812	303.6820068359375	828.3237304687501	-929.736328125	329.6367492675781	739.0599365234376	-940.3343505859375	321.254638671875	732.0239868164064	-1018.010559082031	
